<?xml version="1.0" encoding="UTF-8"?>
<svg version="1.1" xmlns="http://www.w3.org/2000/svg" width="2000" height="2000">
<path d="M0 0 C2.33403434 0.23228959 4.6690167 0.45079336 7.00469971 0.66583252 C58.75280757 5.46307341 109.91014963 14.53025862 160.28936768 27.22784424 C160.97323547 27.39993408 161.65710327 27.57202393 162.36169434 27.74932861 C181.543655 32.59017271 200.46335105 38.15454304 219.28936768 44.22784424 C220.60021928 44.64831923 221.91109201 45.06872836 223.22198486 45.48907471 C286.83642274 65.93970311 349.81759029 92.56593872 407.42315674 126.54229736 C410.12137579 128.12905242 412.82942277 129.69789702 415.54116821 131.26139832 C429.61601925 139.37875923 443.51383816 147.68966405 457.02911377 156.71905518 C459.28296969 158.22357339 461.54484108 159.71529486 463.80889893 161.20440674 C491.34929219 179.36800886 517.93905457 198.83786654 543.46466064 219.73516846 C545.07160463 221.04970626 546.68215958 222.35982726 548.29327393 223.66925049 C558.35833157 231.85901355 568.25697461 240.19433089 577.81671143 248.97003174 C579.90804706 250.87965575 582.02195632 252.75115676 584.16436768 254.60284424 C592.48165848 261.84418161 600.51715412 269.37469281 608.25811768 277.22784424 C610.14649243 279.08716708 612.0857952 280.82172508 614.10186768 282.54034424 C621.78225547 289.14547774 628.89131498 296.45654021 635.44952393 304.16925049 C637.79433063 306.79284525 640.28587405 309.25752894 642.78936768 311.72784424 C646.4934656 315.38776427 650.04224536 319.11728219 653.42218018 323.07940674 C655.31723683 325.25991126 657.2688886 327.38166955 659.23419189 329.49884033 C663.97318407 334.6067264 668.48193847 339.82789651 672.85186768 345.25909424 C675.71863571 348.75067069 678.68730086 352.1429397 681.66436768 355.54034424 C687.27457453 361.96868936 692.6040485 368.56665635 697.81329346 375.32208252 C699.40808247 377.38111709 701.01749059 379.42813313 702.62921143 381.47393799 C710.24600798 391.16283424 717.59935924 401.00757416 724.74102783 411.05157471 C726.22433548 413.13643821 727.71517418 415.21571944 729.20733643 417.29425049 C747.18707671 442.4409741 763.79063789 468.48883638 779.28936768 495.22784424 C779.82175049 496.14549561 780.3541333 497.06314697 780.90264893 498.00860596 C789.18940558 512.34661041 796.96489778 526.92121546 804.48028564 541.67706299 C805.69143686 544.05425371 806.90564295 546.42951666 808.12579346 548.80206299 C848.43474276 627.24691867 876.95814319 712.12320585 909.60186768 900.16534424 C909.71517929 901.2587764 909.71517929 901.2587764 909.83078003 902.3742981 C910.4023806 907.98601937 910.86713269 913.60302325 911.28936768 919.22784424 C911.37550323 920.36629791 911.46163879 921.50475159 911.55038452 922.67770386 C913.27955617 946.34243481 913.65328662 969.94835276 913.60722351 993.67043686 C913.60178424 996.58505126 913.59941641 999.49965755 913.59735107 1002.41427612 C913.56724216 1029.67956945 913.24192522 1056.80591232 910.51397705 1083.95788574 C910.2868631 1086.25315606 910.07499414 1088.54937536 909.86749268 1090.84649658 C903.38946139 1162.13406141 889.08732053 1233.09153382 866.95611572 1301.17150879 C866.28397645 1303.24447146 865.61880374 1305.31955666 864.9553833 1307.39532471 C850.20105985 1353.47997037 831.73746985 1398.24473027 810.12823486 1441.53546143 C808.3529013 1445.09289128 806.60486802 1448.66333309 804.85968018 1452.23565674 C797.84058685 1466.53959972 790.29420562 1480.45412068 782.28936768 1494.22784424 C781.60580747 1495.4101299 780.92255123 1496.59259135 780.23956299 1497.77520752 C772.35816358 1511.41390225 764.45283638 1525.01797739 755.69659424 1538.11993408 C754.12162421 1540.47911022 752.56086879 1542.8473968 751.00030518 1545.21612549 C732.24935371 1573.60119555 712.32981324 1601.08347703 690.77764893 1627.40753174 C689.47527389 1629.00046288 688.17870736 1630.59813944 686.88311768 1632.19659424 C678.62455521 1642.37018568 670.09592804 1652.31005809 661.28936768 1662.01300049 C659.49333239 1664.00196926 657.72983464 1666.01347618 655.97686768 1668.04034424 C648.70730564 1676.37251047 641.16388477 1684.43457025 633.28936768 1692.19659424 C631.43004484 1694.084969 629.69548683 1696.02427177 627.97686768 1698.04034424 C621.37173417 1705.72073203 614.06067171 1712.82979154 606.34796143 1719.38800049 C603.72436666 1721.7328072 601.25968297 1724.22435062 598.78936768 1726.72784424 C595.12944764 1730.43194216 591.39992972 1733.98072192 587.43780518 1737.36065674 C585.25730065 1739.2557134 583.13554236 1741.20736516 581.01837158 1743.17266846 C575.91048552 1747.91166063 570.68931541 1752.42041503 565.25811768 1756.79034424 C561.76654123 1759.65711227 558.37427221 1762.62577742 554.97686768 1765.60284424 C548.54852255 1771.21305109 541.95055556 1776.54252506 535.19512939 1781.75177002 C533.13609482 1783.34655903 531.08907878 1784.95596715 529.04327393 1786.56768799 C519.35437768 1794.18448455 509.50963776 1801.53783581 499.46563721 1808.67950439 C497.3807737 1810.16281204 495.30149247 1811.65365074 493.22296143 1813.14581299 C468.07623781 1831.12555327 442.02837553 1847.72911446 415.28936768 1863.22784424 C414.37171631 1863.76022705 413.45406494 1864.29260986 412.50860596 1864.84112549 C398.15662106 1873.13596225 383.56729582 1880.91543015 368.79620361 1888.43634033 C365.34045356 1890.20174648 361.89677374 1891.98916749 358.45343018 1893.77862549 C326.42098559 1910.27322691 293.04419216 1924.1271327 259.22796631 1936.51544189 C257.32421237 1937.2150394 255.42314092 1937.92146858 253.52276611 1938.63018799 C175.29404516 1967.7059853 92.759596 1985.35149324 9.78936768 1993.54034424 C9.03222473 1993.61588531 8.27508179 1993.69142639 7.49499512 1993.76925659 C1.76516929 1994.3307433 -3.96977319 1994.79496196 -9.71063232 1995.22784424 C-10.82305298 1995.3139798 -11.93547363 1995.40011536 -13.081604 1995.48886108 C-36.4167311 1997.2472877 -59.68836253 1997.59180969 -83.08314514 1997.54590225 C-86.00515803 1997.54025823 -88.92716511 1997.53744009 -91.84918213 1997.53482056 C-119.04735189 1997.49937653 -146.13662079 1997.27137226 -173.21765137 1994.48431396 C-175.85413162 1994.2130815 -178.49151802 1993.95210692 -181.12908936 1993.69171143 C-252.25715613 1986.58453642 -322.62326537 1972.99423159 -390.67047119 1950.88812256 C-392.71085897 1950.22777089 -394.75371401 1949.57569171 -396.79754639 1948.92608643 C-430.17314859 1938.30335278 -462.76857533 1925.5816994 -494.71063232 1911.22784424 C-495.76299072 1910.75878662 -496.81534912 1910.289729 -497.89959717 1909.80645752 C-525.586492 1897.43293727 -552.99277322 1884.01641251 -579.17645264 1868.70001221 C-581.74538506 1867.20765551 -584.32998584 1865.74687349 -586.92156982 1864.29425049 C-632.76476125 1838.55268826 -676.23333834 1808.0030167 -716.89031982 1774.71612549 C-718.48325097 1773.41375045 -720.08092752 1772.11718392 -721.67938232 1770.82159424 C-731.85297377 1762.56303177 -741.79284618 1754.0344046 -751.49578857 1745.22784424 C-753.48475734 1743.43180895 -755.49626427 1741.66831121 -757.52313232 1739.91534424 C-765.85529855 1732.64578221 -773.91735833 1725.10236133 -781.67938232 1717.22784424 C-783.56775708 1715.3685214 -785.50705985 1713.63396339 -787.52313232 1711.91534424 C-795.20352012 1705.31021074 -802.31257962 1697.99914827 -808.87078857 1690.28643799 C-811.21559528 1687.66284322 -813.7071387 1685.19815954 -816.21063232 1682.72784424 C-819.91473025 1679.0679242 -823.46351001 1675.33840628 -826.84344482 1671.37628174 C-828.73850148 1669.19577721 -830.69015325 1667.07401892 -832.65545654 1664.95684814 C-837.39444871 1659.84896208 -841.90320312 1654.62779197 -846.27313232 1649.19659424 C-849.13990036 1645.70501779 -852.10856551 1642.31274877 -855.08563232 1638.91534424 C-860.69583917 1632.48699912 -866.02531315 1625.88903213 -871.23455811 1619.13360596 C-872.82934712 1617.07457138 -874.43875523 1615.02755534 -876.05047607 1612.98175049 C-884.2190093 1602.59102122 -892.05289251 1591.99930177 -899.71063232 1581.22784424 C-900.73009788 1579.80201602 -901.74962833 1578.37623419 -902.76922607 1576.95050049 C-909.96748305 1566.85195795 -916.89539589 1556.58793403 -923.71063232 1546.22784424 C-924.36467041 1545.24026123 -924.36467041 1545.24026123 -925.03192139 1544.23272705 C-944.96446249 1514.11345632 -962.6316863 1482.69184264 -979.02850342 1450.52471924 C-980.12850649 1448.36877708 -981.23282551 1446.21503015 -982.34197998 1444.06378174 C-1025.48097057 1360.38121841 -1055.28747449 1268.39441113 -1083.02313232 1094.22784424 C-1083.0986734 1093.49461945 -1083.17421448 1092.76139465 -1083.25204468 1092.00595093 C-1083.81782217 1086.41902712 -1084.28182548 1080.82682799 -1084.71063232 1075.22784424 C-1084.79676788 1074.12783081 -1084.88290344 1073.02781738 -1084.97164917 1071.89447021 C-1086.76822647 1048.2403625 -1087.07406938 1024.64271074 -1087.02869034 1000.92780304 C-1087.02304934 997.93380174 -1087.02022935 994.9398061 -1087.01760864 991.94580078 C-1086.9826173 964.4524482 -1086.79578031 937.06436368 -1083.96386719 909.69036865 C-1083.69686897 907.09400567 -1083.44294337 904.49657009 -1083.19061279 901.89874268 C-1074.66261714 815.05060774 -1055.22687352 729.68529706 -983.54949951 552.92022705 C-981.77416595 549.3627972 -980.02613267 545.79235538 -978.28094482 542.22003174 C-971.26185149 527.91608876 -963.71547027 514.0015678 -955.71063232 500.22784424 C-955.02707212 499.04555857 -954.34381587 497.86309713 -953.66082764 496.68048096 C-945.77942822 483.04178623 -937.87410103 469.43771108 -929.11785889 456.33575439 C-927.54288886 453.97657826 -925.98213344 451.60829168 -924.42156982 449.23956299 C-905.67178324 420.85625632 -885.75342511 393.37555699 -864.20330811 367.05255127 C-862.8887703 365.44560728 -861.57864931 363.83505233 -860.26922607 362.22393799 C-852.07946302 352.15888035 -843.74414567 342.2602373 -834.96844482 332.70050049 C-833.05882081 330.60916485 -831.18731981 328.4952556 -829.33563232 326.35284424 C-822.09429495 318.03555344 -814.56378376 310.00005779 -806.71063232 302.25909424 C-804.85130949 300.37071948 -803.11675148 298.43141671 -801.39813232 296.41534424 C-794.79299882 288.73495644 -787.48193635 281.62589694 -779.76922607 275.06768799 C-777.14563131 272.72288128 -774.68094762 270.23133786 -772.21063232 267.72784424 C-768.55071229 264.02374632 -764.82119437 260.47496655 -760.85906982 257.09503174 C-758.6785653 255.19997508 -756.55680701 253.24832332 -754.43963623 251.28302002 C-749.33175017 246.54402785 -744.11058005 242.03527345 -738.67938232 237.66534424 C-735.18780588 234.79857621 -731.79553686 231.82991106 -728.39813232 228.85284424 C-721.9697872 223.24263739 -715.37182021 217.91316341 -708.61639404 212.70391846 C-706.55735947 211.10912945 -704.51034343 209.49972133 -702.46453857 207.88800049 C-692.77564233 200.27120393 -682.93090241 192.91785267 -672.88690186 185.77618408 C-670.80203835 184.29287644 -668.72275712 182.80203774 -666.64422607 181.30987549 C-641.49675347 163.32959968 -615.44730757 146.73186945 -588.71063232 131.22784424 C-587.80361572 130.70077881 -586.89659912 130.17371338 -585.96209717 129.63067627 C-570.97589034 120.95304555 -555.69896236 112.88998469 -540.26824951 105.04034424 C-536.93407502 103.34168164 -533.60719261 101.62945892 -530.28094482 99.91534424 C-448.312282 57.97179147 -358.52656346 29.37889084 -178.01574707 0.44073486 C-175.73134357 0.22975704 -173.44882597 0.00405391 -171.16619873 -0.22528076 C-115.07394534 -5.77104526 -56.0769595 -5.64535163 0 0 Z " fill="#F7931A" transform="translate(1086.7106323242188,2.77215576171875)"/>
<path d="M0 0 C11.23119309 2.37102965 22.37138257 5.06526054 33.5 7.875 C43.31186613 10.3519704 53.13024027 12.76159368 63 15 C78.06184523 18.41672994 93.02861485 22.21010575 108 26 C107.40252067 32.69899783 106.17102141 38.96022612 104.48828125 45.46484375 C104.2375737 46.45585587 103.98686615 47.44686798 103.7285614 48.46791077 C102.92883776 51.62590292 102.1212362 54.78180503 101.3125 57.9375 C100.26319799 62.0498404 99.2177421 66.16313721 98.17578125 70.27734375 C97.90856262 71.33203857 97.64134399 72.3867334 97.36602783 73.47338867 C95.59950228 80.49254359 93.94517101 87.53055603 92.34765625 94.58984375 C87.87259897 114.28337743 82.8436711 133.84649934 77.92608643 153.4329834 C76.57655322 158.81034625 75.22981524 164.18840908 73.8828125 169.56640625 C71.25787886 180.04494145 68.62994484 190.52272149 66 201 C66.64728058 201.12883072 67.29456116 201.25766144 67.9614563 201.39039612 C96.20263704 207.02284448 124.09788613 213.89908178 152 221 C152.11038321 220.34603996 152.22076643 219.69207993 152.33449459 219.01830292 C153.57649135 211.90300559 155.16431857 204.92569517 156.92993164 197.92382812 C157.3622258 196.19158493 157.3622258 196.19158493 157.80325317 194.42434692 C158.58832121 191.28159792 159.37650984 188.13965274 160.16620564 184.99806404 C161.00390077 181.66252702 161.83768543 178.32601243 162.67198181 174.98962402 C164.07933204 169.36390778 165.48931848 163.73885779 166.90112305 158.11425781 C168.33167523 152.41492901 169.76020836 146.71510021 171.1862793 141.01464844 C171.36029915 140.31903872 171.53431901 139.62342899 171.7136122 138.90674019 C171.88719421 138.21287146 172.06077623 137.51900272 172.2396183 136.80410767 C178.25877668 112.74342132 184.27954166 88.68285198 190.43359375 64.65625 C190.61770372 63.93472244 190.8018137 63.21319489 190.99150276 62.46980286 C191.48982674 60.5189485 191.99173141 58.56900978 192.49389648 56.61914062 C192.89946022 55.04163025 192.89946022 55.04163025 193.31321716 53.43225098 C194 51 194 51 195 49 C202.36541703 49.68844195 209.35629429 51.46172726 216.515625 53.28125 C217.84248508 53.61483948 219.16945296 53.94800046 220.496521 54.28076172 C224.02327092 55.16627572 227.54856745 56.05744852 231.0736084 56.94973755 C234.70445323 57.86773299 238.33664557 58.78036284 241.96875 59.69335938 C247.69396222 61.13303309 253.41851394 62.57530022 259.14257812 64.01953125 C268.33202432 66.33770525 277.5261092 68.63716559 286.72155762 70.93139648 C290.27299551 71.81768621 293.82398754 72.70575761 297.375 73.59375 C299.24999871 74.06250515 301.12499859 74.53125564 303 75 C301.14543603 84.65071847 299.0560998 94.18823568 296.63354492 103.71459961 C296.30755049 105.00782446 295.98188243 106.30113161 295.6565094 107.59451294 C294.78354343 111.0608322 293.90611636 114.52600747 293.02781844 117.99097896 C292.09903308 121.6585502 291.17455396 125.32720681 290.24958801 128.9957428 C288.49604523 135.94787995 286.73882169 142.89908098 284.98018581 149.8499313 C282.80595463 158.4440932 280.63631471 167.0394129 278.46679688 175.63476562 C277.69708664 178.68413784 276.92733931 181.73350068 276.157547 184.78285217 C275.97013783 185.52523008 275.78272867 186.267608 275.58964044 187.03248221 C274.15067479 192.7319971 272.71015468 198.43111809 271.26890796 204.13005656 C270.12247523 208.6638336 268.97862261 213.19825631 267.83554077 217.73287964 C266.62393359 222.53798918 265.40276834 227.34051972 264.17446899 232.14138794 C263.61796626 234.33065405 263.06151591 236.51993348 262.50512695 238.70922852 C262.12140442 240.19568202 262.12140442 240.19568202 261.72992992 241.71216488 C261.3855109 243.07305658 261.3855109 243.07305658 261.03413391 244.46144104 C260.83316258 245.24644265 260.63219126 246.03144426 260.42512989 246.8402338 C259.87124358 249.28724651 259.87124358 249.28724651 260 253 C261.04450317 253.36013184 261.04450317 253.36013184 262.11010742 253.72753906 C312.13182347 271.06329068 362.55023785 292.42557685 404 326 C404.80743652 326.64114746 405.61487305 327.28229492 406.44677734 327.94287109 C445.15708658 359.01612796 472.09477669 400.88653783 477.71484375 450.7578125 C479.30454843 471.45975446 477.34970491 491.57044761 474 512 C473.86110352 512.89090332 473.72220703 513.78180664 473.57910156 514.69970703 C466.31434898 560.09054663 442.24010793 603.51041632 405.05639648 630.80151367 C398.03919821 635.82267054 390.64971574 640.02686033 383 644 C381.99195313 644.53109375 380.98390625 645.0621875 379.9453125 645.609375 C372.7540571 649.15731533 365.27332692 651.74216669 357.6875 654.3125 C356.66076172 654.66256104 355.63402344 655.01262207 354.57617188 655.37329102 C349.0152855 657.20717149 343.83965232 658.51859497 338 659 C338 659.66 338 660.32 338 661 C338.83273437 661.24492188 339.66546875 661.48984375 340.5234375 661.7421875 C344.49147924 663.17781608 347.97290407 665.03272696 351.625 667.125 C352.33011719 667.52678467 353.03523438 667.92856934 353.76171875 668.3425293 C398.96570706 694.37481703 435.36855234 732.51411387 449.875 783.375 C450.06610352 784.03870605 450.25720703 784.70241211 450.45410156 785.38623047 C453.82465176 797.99062009 454.2988576 810.47659345 454.20581055 823.43188477 C454.18750271 826.06211059 454.18530213 828.69198245 454.18554688 831.32226562 C454.15949694 844.6556715 453.58462784 857.59221739 450.875 870.6875 C450.65545654 871.75637451 450.43591309 872.82524902 450.2097168 873.92651367 C444.08641573 902.96294893 435.07561884 931.31814131 422 958 C421.61376465 958.79164551 421.2275293 959.58329102 420.82958984 960.39892578 C393.97253628 1014.82760863 350.53316207 1051.13343185 293.51318359 1070.86035156 C261.93409642 1081.40291904 227.8347411 1083.22659614 194.8125 1083.25 C193.69249603 1083.25133942 192.57249207 1083.25267883 191.41854858 1083.25405884 C171.47013442 1083.24891397 151.81628062 1082.23358233 132 1080 C130.2684668 1079.80784912 130.2684668 1079.80784912 128.50195312 1079.61181641 C122.53351223 1078.93599384 116.57912608 1078.1858227 110.62939453 1077.36181641 C108.086627 1077.01192026 105.54198015 1076.68178733 102.99609375 1076.35546875 C86.88392445 1074.23229402 70.95052868 1071.0818449 55 1068 C54.88215055 1068.67958771 54.76430109 1069.35917542 54.64288044 1070.05935669 C53.52330076 1076.3828467 52.22301036 1082.62620785 50.71362305 1088.8671875 C50.3807513 1090.25802299 50.3807513 1090.25802299 50.04115486 1091.67695618 C49.30570287 1094.74383074 48.56527357 1097.80947476 47.82421875 1100.875 C47.56497808 1101.95133698 47.30573742 1103.02767395 47.03864098 1104.1366272 C40.7594282 1130.20171309 34.2729435 1156.21528279 27.75952148 1182.22265625 C26.27168343 1188.16350694 24.78711084 1194.10516426 23.30428201 1200.04726696 C21.85194924 1205.86673125 20.39699435 1211.68553612 18.94089317 1217.50405884 C18.32976957 1219.94722235 17.71934082 1222.39055979 17.10962868 1224.83407593 C16.27042154 1228.19594609 15.42823421 1231.55705528 14.58520508 1234.91796875 C14.33648148 1235.91691162 14.08775787 1236.91585449 13.83149719 1237.94506836 C13.60345398 1238.85160156 13.37541077 1239.75813477 13.14045715 1240.69213867 C12.9431088 1241.48077805 12.74576044 1242.26941742 12.54243183 1243.08195496 C12 1245 12 1245 11 1247 C-4.17963447 1243.77995849 -19.22444316 1240.0213848 -34.2734375 1236.24682617 C-37.7702272 1235.36980322 -41.26805344 1234.49699892 -44.76618958 1233.6253643 C-62.23050924 1229.27145381 -79.64026162 1224.7565989 -97 1220 C-93.39168107 1202.81260285 -89.0207578 1185.80477981 -84.75212121 1168.7727654 C-83.67132809 1164.45847608 -82.59306326 1160.14355483 -81.51445007 1155.82872009 C-79.7080979 1148.60424223 -77.89993889 1141.38021857 -76.09057617 1134.15649414 C-73.99914141 1125.80656286 -71.91020629 1117.45600938 -69.82266265 1109.10510451 C-67.59310353 1100.18619345 -65.36175639 1091.26773044 -63.12987494 1082.34940028 C-62.48837271 1079.78552177 -61.8472046 1077.22155989 -61.20611 1074.65757942 C-60.2017137 1070.64099684 -59.19612096 1066.62471565 -58.18959045 1062.60866737 C-57.8203236 1061.13452442 -57.45145632 1059.6602813 -57.08301353 1058.18593216 C-56.58107318 1056.17768121 -56.07769146 1054.16979705 -55.57392883 1052.16200256 C-55.29244649 1051.03774903 -55.01096415 1049.9134955 -54.72095203 1048.75517368 C-54.21406634 1046.81807098 -53.63319033 1044.899571 -53 1043 C-53.58048096 1042.88897949 -54.16096191 1042.77795898 -54.7590332 1042.66357422 C-61.6132556 1041.3258028 -68.4000735 1039.76589341 -75.1875 1038.125 C-76.29464355 1037.85816406 -77.40178711 1037.59132813 -78.54248047 1037.31640625 C-85.40846034 1035.65241347 -92.24659905 1033.92138208 -99.0625 1032.0625 C-102.2223452 1031.20194641 -105.39093261 1030.37877472 -108.5625 1029.5625 C-118.78863746 1026.92901032 -128.94651286 1024.23949242 -139 1021 C-139.34917229 1022.61365952 -139.34917229 1022.61365952 -139.70539856 1024.25991821 C-142.19248654 1035.65697799 -144.94409773 1046.97009457 -147.82421875 1058.2734375 C-148.28852578 1060.10424908 -148.75256878 1061.93512763 -149.21636963 1063.7660675 C-150.19734823 1067.63691611 -151.17981356 1071.50738272 -152.1635437 1075.37753296 C-154.48432544 1084.50846586 -156.7971315 1093.64142012 -159.11021614 1102.77430534 C-159.63102157 1104.83051806 -160.15191994 1106.88670723 -160.67291069 1108.942873 C-165.80072787 1129.18120944 -170.88136764 1149.43114843 -175.9375 1169.6875 C-176.30739953 1171.16908874 -176.67730306 1172.65067647 -177.04721069 1174.13226318 C-179.03327302 1182.08772703 -181.01769679 1190.04359856 -183 1198 C-190.6072963 1196.71454742 -198.06169795 1195.08092805 -205.53515625 1193.171875 C-207.15060585 1192.76464203 -207.15060585 1192.76464203 -208.7986908 1192.34918213 C-212.2208362 1191.48620969 -215.64177364 1190.61857885 -219.0625 1189.75 C-233.7252347 1186.03136786 -248.3932656 1182.38238058 -263.14772034 1179.04266357 C-272.49360386 1176.92131379 -281.75388947 1174.51761564 -291 1172 C-289.35172938 1161.14464243 -286.45673133 1150.56409456 -283.75 1139.9375 C-280.8259753 1128.44218826 -277.96350114 1116.94297291 -275.33984375 1105.375 C-271.04910257 1086.5317539 -266.26647611 1067.80623363 -261.56451416 1049.06243896 C-260.55483586 1045.03462482 -259.54782443 1041.00614593 -258.54085255 1036.97765446 C-257.561192 1033.05928513 -256.5803025 1029.1412243 -255.59900475 1025.22326469 C-255.13509357 1023.37077138 -254.67145462 1021.51820986 -254.2081089 1019.66557503 C-251.89443364 1010.41871713 -249.57773203 1001.17775285 -247 992 C-254.89343169 990.00152154 -262.79266948 988.0406443 -270.72094727 986.18457031 C-278.84184326 984.28115361 -286.88987477 982.23653758 -294.90966797 979.94555664 C-302.47605341 977.81176639 -310.12130636 976.0325104 -317.77172852 974.22851562 C-323.04187491 972.97728087 -328.28626459 971.69010323 -333.49238586 970.19351196 C-341.51665408 967.88683954 -349.57962614 965.90503171 -357.71875 964.04296875 C-376.79401371 959.63001948 -395.80379622 954.95406999 -414.8059082 950.23730469 C-418.86052684 949.23157713 -422.91690661 948.23342262 -426.97485352 947.24121094 C-431.94651456 946.02551824 -436.91494798 944.79741578 -441.88126183 943.56006622 C-443.75773675 943.09476658 -445.63531372 942.63388794 -447.51398659 942.17754364 C-450.10728258 941.54668143 -452.69610366 940.89995182 -455.28442383 940.24902344 C-456.05656219 940.06509033 -456.82870056 939.88115723 -457.62423706 939.69165039 C-459.74079895 939.14886475 -459.74079895 939.14886475 -463 938 C-464.36577246 933.90268263 -463.1478963 932.47275653 -461.37890625 928.5703125 C-460.9428582 927.59615891 -460.9428582 927.59615891 -460.4980011 926.60232544 C-459.86296319 925.18631707 -459.22351765 923.77227924 -458.58026123 922.35998535 C-457.19223175 919.31189758 -455.82553533 916.25440301 -454.45758057 913.19726562 C-453.73675804 911.58676446 -453.01485444 909.97674677 -452.29193115 908.3671875 C-448.40178933 899.69783929 -444.63388207 890.97686376 -440.875 882.25 C-439.87054079 879.92124439 -438.8657291 877.59264107 -437.86091614 875.26403809 C-437.20140872 873.73554041 -436.54205469 872.20697655 -435.88285828 870.67834473 C-433.72293993 865.6706351 -431.5555521 860.66622147 -429.3828125 855.6640625 C-429.09659027 855.00460129 -428.81036804 854.34514008 -428.51547241 853.66569519 C-427.14289002 850.50367733 -425.76795855 847.34272418 -424.38818359 844.18383789 C-422.04534936 838.80302244 -419.74430419 833.41787683 -417.59375 827.95703125 C-417.23410156 827.05549316 -416.87445312 826.15395508 -416.50390625 825.22509766 C-415.85894495 823.59481368 -415.2299041 821.95809102 -414.62109375 820.31396484 C-413.78125 818.19921875 -413.78125 818.19921875 -412 815 C-407.7559724 813.45969471 -404.42498788 814.3757669 -400.14453125 815.4765625 C-399.49009537 815.64201065 -398.83565948 815.8074588 -398.16139221 815.97792053 C-396.04230037 816.51663393 -393.92752303 817.0705484 -391.8125 817.625 C-390.34801701 818.00052885 -388.88333482 818.37528172 -387.41845703 818.74926758 C-379.36534632 820.81507872 -371.34284052 822.97952491 -363.34985352 825.26708984 C-332.77655597 834.64891237 -332.77655597 834.64891237 -302.1875 830.4375 C-290.17076934 823.16332737 -283.54669978 811.89202793 -280.10148621 798.41888428 C-279.82750504 797.26857727 -279.55352386 796.11827026 -279.27124023 794.93310547 C-278.95798798 793.68564545 -278.64473572 792.43818542 -278.32199097 791.15292358 C-277.47240979 787.76759502 -276.64604329 784.3769995 -275.82417178 780.98485327 C-274.95030887 777.3955817 -274.05492769 773.81167897 -273.16212463 770.2270813 C-271.66319403 764.19653841 -270.17783908 758.16279457 -268.70239258 752.12646484 C-266.64434701 743.70663526 -264.56291125 735.29272831 -262.47609031 726.87999129 C-254.53399637 694.94301437 -254.53399637 694.94301437 -246.98144531 662.91259766 C-243.732086 648.70291826 -240.24873053 634.55336789 -236.73828125 620.40625 C-236.49030151 619.40638471 -236.49030151 619.40638471 -236.23731208 618.38632011 C-234.67291819 612.07876216 -233.10707324 605.77156663 -231.53695393 599.46543121 C-229.54910505 591.48127579 -227.5694486 583.49518386 -225.60038978 575.50637293 C-224.20121743 569.83247622 -222.79311533 564.16084207 -221.37826508 558.49083471 C-220.53795938 555.12231751 -219.70159868 551.75293581 -218.87487221 548.38105774 C-217.95981497 544.6498726 -217.02633463 540.92343855 -216.09106445 537.19726562 C-215.82140366 536.08581177 -215.55174286 534.97435791 -215.27391052 533.82922363 C-214.88947281 532.31642822 -214.88947281 532.31642822 -214.49726868 530.77307129 C-214.17019912 529.45486263 -214.17019912 529.45486263 -213.8365221 528.1100235 C-213 526 -213 526 -210 524 C-210.33 523.67 -210.66 523.34 -211 523 C-210.51842728 516.34914624 -209.19753462 510.12240141 -207.53833008 503.67749023 C-207.16181509 502.18495271 -207.16181509 502.18495271 -206.77769375 500.66226292 C-205.94727617 497.37624991 -205.10841839 494.09245381 -204.26953125 490.80859375 C-203.68026471 488.48353568 -203.09155099 486.15833743 -202.50335693 483.83300781 C-201.2573565 478.91163614 -200.00773768 473.99120376 -198.75515747 469.07150269 C-196.81038239 461.43276162 -194.87396569 453.79191858 -192.93920898 446.15063477 C-190.72268406 437.39833931 -188.5047135 428.64641412 -186.28409672 419.89515591 C-182.29843988 404.18759054 -178.32728699 388.47650606 -174.3934021 372.75588989 C-173.59690482 369.5749032 -172.79723473 366.39472689 -171.99731445 363.21459961 C-169.39148417 352.81891746 -166.91059649 342.40334967 -164.58192444 331.9417572 C-164.38851974 331.07547195 -164.19511505 330.20918671 -163.99584961 329.31665039 C-163.82701767 328.55349014 -163.65818573 327.7903299 -163.48423767 327.00404358 C-163 325 -163 325 -162 322 C-160.74489014 305.76587407 -164.52795504 291.3736918 -175.1875 278.875 C-182.97602529 270.58523299 -191.45236213 265.97418135 -202 262 C-203.51787109 261.42100952 -203.51787109 261.42100952 -205.06640625 260.83032227 C-214.33022568 257.4016779 -223.66175861 254.88959182 -233.25 252.5625 C-234.83539024 252.1721335 -236.42067542 251.78134007 -238.00585938 251.39013672 C-249.44669389 248.57710319 -260.91465357 245.88705236 -272.40625 243.2890625 C-278.29401135 241.95112526 -284.14811877 240.48613079 -290 239 C-287.56345145 227.35293727 -284.74422302 215.80521718 -281.84765625 204.265625 C-281.56150515 203.12534096 -281.56150515 203.12534096 -281.26957321 201.96202087 C-279.66858157 195.58627609 -278.06153652 189.21205952 -276.45428467 182.83789062 C-275.06180302 177.31449689 -273.67174198 171.79050191 -272.28515625 166.265625 C-271.99934126 165.12742561 -271.99934126 165.12742561 -271.70775223 163.9662323 C-268.94592758 152.95340729 -266.31833455 141.91907641 -263.87280273 130.83105469 C-263 127 -263 127 -262 124 C-253.92097895 124.50321686 -246.33937261 126.2045281 -238.50732422 128.18701172 C-237.17909184 128.51785323 -235.85070796 128.848087 -234.52218628 129.17776489 C-230.94219943 130.06809194 -227.36446631 130.96717335 -223.78715658 131.86818838 C-220.02843776 132.81356197 -216.26788938 133.7516059 -212.50759888 134.69070435 C-206.19702689 136.26790708 -199.88787985 137.85070804 -193.57958984 139.43701172 C-186.30246976 141.26688012 -179.02330459 143.08841964 -171.74295413 144.90538967 C-164.71631693 146.65919491 -157.69103128 148.4183545 -150.66638565 150.18011856 C-147.68694285 150.927292 -144.70706967 151.67271194 -141.72683334 152.41671371 C-138.21429462 153.29390179 -134.70297777 154.17582765 -131.19252396 155.06132126 C-129.30079653 155.53736181 -127.4079245 156.00884673 -125.51501465 156.48016357 C-119.49996897 158.00260171 -113.77206819 159.73024296 -108 162 C-106.49188634 162.43742584 -104.9742324 162.84511044 -103.44458008 163.19995117 C-102.64308029 163.38850174 -101.84158051 163.57705231 -101.01579285 163.77131653 C-100.17140152 163.96408676 -99.32701019 164.15685699 -98.45703125 164.35546875 C-97.55185257 164.56648727 -96.64667389 164.7775058 -95.71406555 164.99491882 C-92.81078916 165.66957238 -89.90565692 166.33567953 -87 167 C-86.03833923 167.22093323 -85.07667847 167.44186646 -84.08587646 167.66949463 C-77.28939052 169.23035486 -70.48897242 170.77353862 -63.6875 172.3125 C-61.66338802 172.77138102 -59.63929938 173.23036498 -57.61523438 173.68945312 C-52.74375612 174.79414838 -47.87197002 175.89747566 -43 177 C-42.89942543 176.38472222 -42.79885086 175.76944445 -42.69522858 175.13552189 C-41.27149831 166.85114807 -39.28122121 158.73373795 -37.22460938 150.58959961 C-36.84301577 149.0673542 -36.46174334 147.54502824 -36.08076477 146.02262878 C-35.26490644 142.76525247 -34.44684727 139.50844004 -33.62702942 136.25205803 C-32.32880764 131.09520362 -31.03582191 125.93704496 -29.74353027 120.77870178 C-27.23288366 110.76016573 -24.7169136 100.74297038 -22.20043182 90.72589874 C-18.99678842 77.97228743 -15.79581227 65.21800808 -12.59912157 52.46265227 C-11.31577013 47.3425749 -10.029955 42.22312468 -8.74214935 37.10416591 C-7.9397186 33.91263843 -7.13925553 30.72061972 -6.3392849 27.52847481 C-5.97007994 26.05696372 -5.60006136 24.58565648 -5.22913551 23.11457825 C-3.29560729 15.44453109 -1.43705188 7.78135247 0 0 Z " fill="#FEFEFE" transform="translate(974,375)"/>
<path d="M0 0 C1.90161157 0.30813626 3.80281971 0.61876282 5.70385742 0.93041992 C6.76263596 1.10312912 7.82141449 1.27583832 8.91227722 1.45378113 C13.10795753 2.19599794 17.19616053 3.22281696 21.3125 4.3125 C28.57398724 6.18175943 35.8539741 7.87539936 43.1875 9.4375 C117.19320768 25.34155449 216.69118135 48.14982906 261.70849609 114.98535156 C276.77344328 138.48553005 280.5322591 165.47053737 274.59960938 192.62207031 C268.30419086 217.58842877 254.24648504 239.87987409 231.9375 253.34765625 C189.11697945 277.43419906 140.41756396 275.7693632 93 271 C91.82018555 270.88253418 90.64037109 270.76506836 89.42480469 270.64404297 C63.9570245 268.03653701 39.14342669 262.72323649 14.28271484 256.77392578 C9.94987742 255.75242536 5.60220722 254.80960079 1.25 253.875 C-4.98196301 252.51923733 -11.10397292 250.90378707 -17.23339844 249.14501953 C-26.87750709 246.40996854 -36.62605532 244.06983784 -46.35986328 241.67871094 C-47.39000046 241.42432251 -47.39000046 241.42432251 -48.44094849 241.16479492 C-50.33385758 240.69746283 -52.22745652 240.23292755 -54.12109375 239.76855469 C-57 239 -57 239 -59 238 C-57.55720021 229.12955227 -55.44425618 220.46627439 -53.2109375 211.76953125 C-52.83177975 210.28117847 -52.45299005 208.7927319 -52.07453918 207.30419922 C-51.26715837 204.13112309 -50.45761723 200.95860956 -49.64633179 197.78652954 C-47.68928475 190.13344444 -45.74458957 182.4772151 -43.79842949 174.82135582 C-43.13463795 172.21056591 -42.47042754 169.59988281 -41.8061676 166.98921204 C-37.89348208 151.60684118 -34.02942809 136.21270303 -30.1875 120.8125 C-29.56103564 118.30249011 -28.93457079 115.79248035 -28.30810547 113.2824707 C-27.32281855 109.33414605 -26.33766417 105.38578853 -25.35290527 101.43733215 C-22.27746547 89.10685209 -19.19582523 76.77792452 -16.11328125 64.44921875 C-15.86016867 63.43688486 -15.60705608 62.42455097 -15.34627342 61.3815403 C-14.07070717 56.27993285 -12.79508629 51.17833907 -11.5194397 46.07675171 C-9.31836858 37.2740899 -7.11775269 28.47131428 -4.91711998 19.66854286 C-3.86664004 15.46652398 -2.81613196 11.26451213 -1.765625 7.0625 C-1.41959621 5.67838545 -1.07356755 4.29427087 -0.72753906 2.91015625 C-0.48745117 1.94980469 -0.24736328 0.98945312 0 0 Z " fill="#F7931A" transform="translate(929,1028)"/>
<path d="M0 0 C5.27758038 0.60540822 10.40827275 1.42262503 15.609375 2.53125 C16.3214209 2.68279541 17.0334668 2.83434082 17.76708984 2.99047852 C20.09584059 3.48863523 22.42308123 3.99335806 24.75 4.5 C25.95952332 4.7626062 25.95952332 4.7626062 27.19348145 5.03051758 C53.80792029 10.82756688 80.22678914 17.11195094 106 26 C107.02061523 26.34498535 108.04123047 26.6899707 109.09277344 27.04541016 C152.47577833 41.75527553 199.27336668 63.23443006 221.375 105.8125 C231.73001329 127.11438741 232.53482992 153.61667936 225 176 C220.89748736 187.81494664 215.73685837 198.15566102 208 208 C207.17435547 209.09828125 207.17435547 209.09828125 206.33203125 210.21875 C188.86423841 231.95644776 158.52252938 240.72270413 132 244 C124.27872153 244.60683944 116.55128334 244.53214876 108.8125 244.4375 C107.79217682 244.43134674 106.77185364 244.42519348 105.72061157 244.41885376 C89.64409224 244.32012273 73.90260404 243.4959244 58 241 C56.47926174 240.78059 54.9584345 240.56179548 53.4375 240.34375 C48.93736091 239.66870349 44.47110167 238.84389184 40 238 C38.49832275 237.72446289 38.49832275 237.72446289 36.96630859 237.44335938 C11.56700288 232.75013087 -13.41858014 226.39441807 -38.3828125 219.8046875 C-39.54570801 219.49772949 -40.70860352 219.19077148 -41.90673828 218.87451172 C-45.71368172 217.79823142 -49.33902241 216.49427657 -53 215 C-51.56460488 206.18699498 -49.46885149 197.5785053 -47.25 188.9375 C-45.10007838 180.53990616 -43.01642302 172.13536506 -41.09688091 163.6816864 C-37.34475451 147.18061611 -33.26576989 130.76621579 -29.15512061 114.35183144 C-28.16389642 110.39209812 -27.17502156 106.43177793 -26.18574524 102.47155762 C-24.53265992 95.85561625 -22.87763061 89.24016353 -21.22143555 82.625 C-19.30758139 74.98056798 -17.39718699 67.33527725 -15.4884879 59.6895566 C-13.83913926 53.0831027 -12.18796738 46.47710649 -10.53525287 39.87149382 C-9.5523253 35.94289703 -8.57002973 32.01414518 -7.58939171 28.0849762 C-6.67298245 24.41358251 -5.75429143 20.74276742 -4.83379936 17.07239532 C-4.49636804 15.72532105 -4.15974314 14.37804448 -3.82397079 13.03055573 C-3.36701044 11.19727771 -2.90688462 9.36478956 -2.44657898 7.53234863 C-2.1898173 6.50605598 -1.93305563 5.47976334 -1.6685133 4.42237091 C-1 2 -1 2 0 0 Z " fill="#F7931A" transform="translate(1010,704)"/>
</svg>
