<svg width="60" height="42" viewBox="0 0 60 42" fill="none" xmlns="http://www.w3.org/2000/svg">
<path d="M57 0C58.5938 0 60 1.40625 60 3V39C60 40.6875 58.5938 42 57 42H3C1.3125 42 0 40.6875 0 39V3C0 1.40625 1.3125 0 3 0H57ZM16.5 27.75C18.6562 27.75 20.4375 25.875 20.4375 23.5312C20.4375 21.6562 19.2188 19.9688 17.5312 19.5L13.3125 18.1875C12.75 18.0938 12.4688 17.625 12.4688 17.0625C12.4688 16.3125 12.9375 15.75 13.5938 15.75H16.2188C16.5938 15.75 17.0625 15.9375 17.4375 16.125C17.7188 16.3125 18.0938 16.3125 18.375 16.0312L19.4062 15C19.7812 14.7188 19.7812 14.1562 19.4062 13.875C18.5625 13.2188 17.5312 12.8438 16.4062 12.8438V11.25C16.4062 10.875 16.125 10.5 15.6562 10.5H14.1562C13.7812 10.5 13.4062 10.875 13.4062 11.25V12.8438C11.25 12.8438 9.46875 14.7188 9.46875 17.0625C9.46875 18.9375 10.6875 20.5312 12.375 21.0938L16.5938 22.4062C17.1562 22.5 17.4375 22.9688 17.4375 23.5312C17.4375 24.2812 16.9688 24.75 16.3125 24.75H13.6875C13.3125 24.75 12.8438 24.6562 12.4688 24.4688C12.1875 24.2812 11.8125 24.2812 11.5312 24.5625L10.5 25.5938C10.125 25.875 10.125 26.4375 10.5 26.7188C11.3438 27.375 12.375 27.75 13.5 27.75V29.25C13.5 29.7188 13.7812 30 14.25 30H15.75C16.125 30 16.5 29.7188 16.5 29.25V27.75ZM39 26.25V24.75C39 24.375 38.625 24 38.25 24H27.75C27.2812 24 27 24.375 27 24.75V26.25C27 26.7188 27.2812 27 27.75 27H38.25C38.625 27 39 26.7188 39 26.25ZM54 26.25V24.75C54 24.375 53.625 24 53.25 24H45.75C45.2812 24 45 24.375 45 24.75V26.25C45 26.7188 45.2812 27 45.75 27H53.25C53.625 27 54 26.7188 54 26.25ZM54 17.25V15.75C54 15.375 53.625 15 53.25 15H27.75C27.2812 15 27 15.375 27 15.75V17.25C27 17.7188 27.2812 18 27.75 18H53.25C53.625 18 54 17.7188 54 17.25Z" fill="#6C19FF"/>
</svg>
