<svg width="48" height="48" viewBox="0 0 48 48" fill="none" xmlns="http://www.w3.org/2000/svg">
<path d="M31.5 44C38.9558 44 45 37.9558 45 30.5C45 23.0442 38.9558 17 31.5 17C24.0442 17 18 23.0442 18 30.5C18 37.9558 24.0442 44 31.5 44Z" fill="#6C19FF"/>
<path d="M23 29H40V26H23V29Z" fill="#2100C4"/>
<path d="M23 35H31V32H23V35Z" fill="#2100C4"/>
<path d="M18.5838 3.0293C11.1558 3.0293 5.13477 9.0503 5.13477 16.4783C5.13477 19.9983 6.49777 23.1923 8.71077 25.5893L5.19377 29.9283C5.19377 29.9283 18.5568 29.9283 18.5838 29.9283C26.0118 29.9283 32.0328 23.9073 32.0328 16.4793C32.0328 9.0513 26.0118 3.0293 18.5838 3.0293Z" fill="#3DD9EB"/>
<path d="M44.9298 43.9998H31.0908L38.0778 35.5488L44.9298 43.9998Z" fill="#6C19FF"/>
<path d="M18.0293 29.928H18.5843C25.8273 29.928 31.7163 24.198 32.0053 17.026C31.8363 17.019 31.6713 17 31.5003 17C24.2373 17 18.3313 22.739 18.0293 29.928Z" fill="#00B3D7"/>
<path d="M10 15H27V12H10V15Z" fill="#00B3D7"/>
<path d="M10 21H18V18H10V21Z" fill="#00B3D7"/>
</svg>
