<svg width="54" height="49" viewBox="0 0 54 49" fill="none" xmlns="http://www.w3.org/2000/svg">
<path d="M45.4688 0L54 15H44.4375L37.9688 0H45.4688ZM33.4688 0L39.9375 15H13.9688L20.4375 0H33.4688ZM8.4375 0H15.9375L9.46875 15H0L8.4375 0ZM0 18H9.375L20.9062 41.625C21.0938 41.9062 20.7188 42.1875 20.4375 41.9062L0 18ZM13.875 18H40.0312L27.1875 47.9062C27.0938 48.0938 26.8125 48.0938 26.7188 47.9062L13.875 18ZM33 41.625L44.5312 18H54L33.4688 41.9062C33.2812 42.1875 32.8125 41.9062 33 41.625Z" fill="#6C19FF"/>
</svg>
