<svg width="14" height="15" viewBox="0 0 14 15" fill="none" xmlns="http://www.w3.org/2000/svg">
<g id="Discount">
<path id="Stroke 1" d="M2.19655 4.20401C2.19655 3.37134 2.87122 2.69667 3.70388 2.69601H4.38988C4.78788 2.69601 5.16922 2.53801 5.45188 2.25801L5.93122 1.77801C6.51855 1.18734 7.47322 1.18467 8.06388 1.77201L8.06455 1.77267L8.07055 1.77801L8.55055 2.25801C8.83322 2.53867 9.21455 2.69601 9.61255 2.69601H10.2979C11.1306 2.69601 11.8059 3.37067 11.8059 4.20401V4.88867C11.8059 5.28667 11.9632 5.66867 12.2439 5.95134L12.7239 6.43134C13.3146 7.01867 13.3179 7.97334 12.7306 8.56401L12.7299 8.56467L12.7239 8.57068L12.2439 9.05067C11.9632 9.33267 11.8059 9.71401 11.8059 10.112V10.798C11.8059 11.6307 11.1312 12.3053 10.2985 12.3053H10.2979H9.61122C9.21322 12.3053 8.83122 12.4633 8.54922 12.744L8.06922 13.2233C7.48255 13.814 6.52855 13.8173 5.93788 13.2313C5.93722 13.2307 5.93655 13.23 5.93588 13.2293L5.92988 13.2233L5.45055 12.744C5.16855 12.4633 4.78655 12.306 4.38855 12.3053H3.70388C2.87122 12.3053 2.19655 11.6307 2.19655 10.798V10.1107C2.19655 9.71267 2.03855 9.33134 1.75788 9.04934L1.27855 8.56934C0.687883 7.98267 0.68455 7.02867 1.27122 6.43801C1.27122 6.43734 1.27188 6.43667 1.27255 6.43601L1.27855 6.43001L1.75788 5.95001C2.03855 5.66734 2.19655 5.28601 2.19655 4.88734V4.20401" stroke="white" stroke-linecap="round" stroke-linejoin="round"/>
<path id="Stroke 3" d="M5.28772 9.21451L8.71439 5.78784" stroke="white" stroke-linecap="round" stroke-linejoin="round"/>
<path id="Stroke 11" d="M8.66359 9.16659H8.66959" stroke="white" stroke-width="1.33333" stroke-linecap="round" stroke-linejoin="round"/>
<path id="Stroke 11_2" d="M5.33033 5.83333H5.33633" stroke="white" stroke-width="1.33333" stroke-linecap="round" stroke-linejoin="round"/>
</g>
</svg>
