<svg width="55" height="48" viewBox="0 0 55 48" fill="none" xmlns="http://www.w3.org/2000/svg">
<path d="M26.0889 13.5938C23.8389 12.9375 21.9639 11.25 21.6826 9.09375C21.3076 6.09375 23.6514 3.5625 26.7451 3.1875V1.5C26.7451 0.75 27.4014 0 28.3389 0H29.9326C30.8701 0 31.6201 0.75 31.6201 1.5V3.1875C32.7451 3.375 33.8701 3.75 34.8076 4.3125C35.0889 4.5 35.3701 4.78125 35.3701 5.25C35.3701 5.4375 35.2764 5.625 35.1826 5.71875C35.0889 5.8125 35.0889 5.90625 34.9951 6L33.2139 7.6875C32.8389 7.96875 32.2764 8.0625 31.8076 7.875C31.4326 7.6875 31.0576 7.59375 30.6826 7.59375H27.4014C26.9326 7.59375 26.5576 7.96875 26.5576 8.4375C26.5576 8.8125 26.7451 9.09375 27.1201 9.1875L32.1826 10.5C34.5264 11.1562 36.3076 12.8438 36.5889 15C36.9639 18 34.6201 20.5312 31.6201 20.9062V22.5C31.6201 23.3438 30.8701 24 29.9326 24H28.3389C27.4014 24 26.6514 23.3438 26.6514 22.5V20.9062C25.5264 20.8125 24.4014 20.3438 23.4639 19.7812C23.1826 19.5938 22.9014 19.3125 22.9014 18.8438C22.9014 18.6562 22.9951 18.4688 23.0889 18.375C23.1826 18.2812 23.1826 18.1875 23.2764 18.0938L25.0576 16.4062C25.4326 16.125 25.9951 16.0312 26.5576 16.2188C26.8389 16.4062 27.2139 16.5 27.5889 16.5H30.8701C31.3389 16.5 31.7139 16.125 31.7139 15.6562C31.7139 15.2812 31.5264 15 31.1514 14.9062L26.0889 13.5938ZM53.6514 30.8438C54.2139 31.3125 54.6826 32.1562 54.6826 33C54.6826 34.0312 54.2139 34.875 53.5576 35.3438L39.3076 46.6875C38.2764 47.5312 36.9639 48 35.5576 48H2.18262C1.33887 48 0.682617 47.3438 0.682617 46.5V37.5C0.682617 36.75 1.33887 36 2.18262 36H7.33887L11.6514 32.5312C13.6201 30.9375 15.9639 30.0938 18.6826 30H33.6826C35.2764 30 36.5889 31.4062 36.6826 33C36.6826 33 36.6826 33 36.6826 33.0938C36.6826 33.1875 36.5889 33.375 36.5889 33.5625C36.4014 35.0625 34.9951 36 33.4951 36H26.1826C25.3389 36 24.6826 36.75 24.6826 37.5C24.6826 38.3438 25.3389 39 26.1826 39H37.2451C38.6514 39 39.9639 38.5312 40.9951 37.6875L49.6201 30.8438C50.8389 29.9062 52.5264 29.8125 53.6514 30.8438Z" fill="#6C19FF"/>
</svg>
