<svg width="61" height="49" viewBox="0 0 61 49" fill="none" xmlns="http://www.w3.org/2000/svg">
<path d="M55.2188 23L59.5312 27.3125C60.0938 27.875 60.0938 28.9062 59.5312 29.4688L57.375 31.625C56.8125 32.1875 55.7812 32.1875 55.2188 31.625L51 27.3125L46.6875 31.625C46.125 32.1875 45.0938 32.1875 44.5312 31.625L42.375 29.4688C41.8125 28.9062 41.8125 27.875 42.375 27.3125L46.6875 23L42.375 18.7812C41.8125 18.2188 41.8125 17.1875 42.375 16.625L44.5312 14.4688C45.0938 13.9062 46.125 13.9062 46.6875 14.4688L51 18.7812L55.2188 14.4688C55.7812 13.9062 56.8125 13.9062 57.375 14.4688L59.5312 16.625C60.0938 17.1875 60.0938 18.2188 59.5312 18.7812L55.2188 23ZM21 24.5C14.3438 24.5 9 19.1562 9 12.5C9 5.9375 14.3438 0.5 21 0.5C27.5625 0.5 33 5.9375 33 12.5C33 19.1562 27.5625 24.5 21 24.5ZM29.3438 27.5C36.2812 27.5 42 33.2188 42 40.1562V44C42 46.5312 39.9375 48.5 37.5 48.5H4.5C1.96875 48.5 0 46.5312 0 44V40.1562C0 33.2188 5.625 27.5 12.5625 27.5H14.1562C16.2188 28.5312 18.5625 29 21 29C23.4375 29 25.6875 28.5312 27.75 27.5H29.3438Z" fill="#6C19FF"/>
</svg>
