<svg width="44" height="49" viewBox="0 0 44 49" fill="none" xmlns="http://www.w3.org/2000/svg">
<path d="M30.9062 30.5938C37.5625 30.875 43 36.4062 43 43.1562V44C43 46.5312 40.9375 48.5 38.5 48.5H5.5C2.96875 48.5 1 46.5312 1 44V43.1562C1 36.4062 6.34375 30.875 13 30.5938L22 39.5L30.9062 30.5938ZM2.21875 8C0.53125 7.625 0.53125 5.46875 2.21875 5.09375L20.125 0.78125C21.3438 0.5 22.5625 0.5 23.7812 0.78125L41.6875 5.09375C43.375 5.46875 43.375 7.625 41.6875 8L32.6875 10.1562C33.4375 11.8438 34 13.625 34 15.5C34 22.1562 28.5625 27.5 22 27.5C15.3438 27.5 10 22.1562 10 15.5C10 13.625 10.4688 11.8438 11.3125 10.1562L5.125 8.75V13.625C5.78125 14 6.25 14.75 6.25 15.5C6.25 16.3438 5.78125 17 5.125 17.375L6.625 23.1875C6.8125 23.8438 6.4375 24.5 5.875 24.5H2.03125C1.46875 24.5 1.09375 23.8438 1.28125 23.1875L2.78125 17.375C2.125 17 1.75 16.3438 1.75 15.5C1.75 14.75 2.21875 14 2.875 13.625V8.1875L2.21875 8Z" fill="#6C19FF"/>
</svg>
