<svg width="61" height="37" viewBox="0 0 61 37" fill="none" xmlns="http://www.w3.org/2000/svg">
<path d="M41.626 0C42.4697 0 43.2197 0.375 43.7822 0.9375L48.8447 6V24.1875C48.6572 23.9062 48.376 23.7188 48.1885 23.4375L34.501 12.375L36.9385 10.125C37.5947 9.5625 37.5947 8.625 37.0322 8.0625C36.4697 7.40625 35.5322 7.40625 34.876 7.96875L27.4697 14.8125C27.376 14.8125 27.376 14.8125 27.376 14.8125C25.7822 16.2188 23.3447 15.8438 22.126 14.5312C20.8135 13.125 20.8135 10.7812 22.3135 9.28125L31.5947 0.84375C32.1572 0.28125 32.8135 0 33.5635 0H41.626ZM51.9385 6.09375H60.9385V30.0938H54.9385C53.251 30.0938 51.9385 28.6875 51.9385 27.0938V6.09375ZM56.4385 27.0938C57.1885 27.0938 57.9385 26.3438 57.9385 25.5938C57.9385 24.75 57.1885 24.0938 56.4385 24.0938C55.5947 24.0938 54.9385 24.75 54.9385 25.5938C54.9385 26.3438 55.5947 27.0938 56.4385 27.0938ZM0.938477 30V6.09375H9.93848V27C9.93848 28.6875 8.53223 30 6.93848 30H0.938477ZM5.43848 24.0938C4.59473 24.0938 3.93848 24.75 3.93848 25.5938C3.93848 26.3438 4.59473 27.0938 5.43848 27.0938C6.18848 27.0938 6.93848 26.3438 6.93848 25.5938C6.93848 24.75 6.18848 24.0938 5.43848 24.0938ZM46.2197 25.7812C47.5322 26.8125 47.7197 28.6875 46.6885 30L45.8447 31.125C44.7197 32.4375 42.8447 32.625 41.626 31.5938L41.0635 31.125L38.1572 34.7812C36.9385 36.2812 34.6885 36.4688 33.1885 35.25L31.5947 33.8438H31.501C29.4385 36.375 25.6885 36.8438 23.0635 34.6875L14.626 27H12.9385V6L18.001 0.9375C18.5635 0.375 19.3135 0 20.1572 0H28.0322L20.3447 7.03125C17.626 9.5625 17.4385 13.875 19.876 16.5938C22.4072 19.3125 26.626 19.5938 29.4385 16.9688L32.251 14.4375L46.2197 25.7812Z" fill="#6C19FF"/>
</svg>
