<svg width="48" height="48" viewBox="0 0 48 48" fill="none" xmlns="http://www.w3.org/2000/svg">
<g id="Icon Illustration/icons8-student-center 1">
<path id="Vector" d="M42 43.0001H6V15.0561L24 1.45312L42 15.0251V43.0001Z" fill="#3DD9EB"/>
<path id="Vector_2" d="M3.67499 24.3331L0.0419922 19.5591L24 1.45312L47.958 19.5181L44.378 24.3331L24.021 8.92612L3.67499 24.3331Z" fill="#3DD9EB"/>
<path id="Vector_3" d="M6 22.5731L24.021 8.92612L42 22.5331V15.0251L24 1.45312L6 15.0561V22.5731Z" fill="#00B3D7"/>
<path id="Vector_4" d="M15 26V35.155L24 38.172L33 35.155V26H15Z" fill="#6C19FF"/>
<path id="Vector_5" d="M39.042 38.0001L38 36.3401V24.6641L36 25.0001V36.3401L34.958 38.0001H39.042Z" fill="#F5BC00"/>
<path id="Vector_6" d="M38 24.664L24 20L10 24.664L24 28.812L38 24.664Z" fill="#6C19FF"/>
<path id="Vector_7" d="M15 26.145L24 28.812L33 26.145H15Z" fill="#2100C4"/>
</g>
</svg>
