<svg width="38" height="49" viewBox="0 0 38 49" fill="none" xmlns="http://www.w3.org/2000/svg">
<path d="M12.1885 7.25C12.1885 3.59375 15.1885 0.5 18.9385 0.5C22.5947 0.5 25.6885 3.59375 25.6885 7.25C25.6885 11 22.5947 14 18.9385 14C15.1885 14 12.1885 11 12.1885 7.25ZM36.001 7.4375C37.2197 8.5625 37.2197 10.5312 36.001 11.6562L27.1885 20.5625V45.5C27.1885 47.1875 25.7822 48.5 24.1885 48.5H22.6885C21.001 48.5 19.6885 47.1875 19.6885 45.5V35H18.1885V45.5C18.1885 47.1875 16.7822 48.5 15.1885 48.5H13.6885C12.001 48.5 10.6885 47.1875 10.6885 45.5V20.5625L1.78223 11.6562C0.563477 10.5312 0.563477 8.5625 1.78223 7.4375C2.90723 6.21875 4.87598 6.21875 6.00098 7.4375L14.1572 15.5H23.626L31.7822 7.4375C32.9072 6.21875 34.876 6.21875 36.001 7.4375Z" fill="#6C19FF"/>
</svg>
