<svg width="46" height="43" viewBox="0 0 46 43" fill="none" xmlns="http://www.w3.org/2000/svg">
<path d="M45.1826 9.5V11C45.1826 11.4688 44.8076 11.75 44.4326 11.75H42.1826V12.875C42.1826 13.5312 41.6201 14 41.0576 14H4.30762C3.65137 14 3.18262 13.5312 3.18262 12.875V11.75H0.932617C0.463867 11.75 0.182617 11.4688 0.182617 11V9.5C0.182617 9.21875 0.370117 8.9375 0.557617 8.84375L22.3076 0.59375C22.4014 0.59375 22.4951 0.59375 22.5889 0.59375C22.7764 0.59375 22.8701 0.59375 22.9639 0.59375L44.7139 8.84375C44.9014 8.9375 45.1826 9.21875 45.1826 9.5ZM42.9326 38C44.1514 38 45.1826 39.0312 45.1826 40.25V41.75C45.1826 42.2188 44.8076 42.5 44.4326 42.5H0.932617C0.463867 42.5 0.182617 42.2188 0.182617 41.75V40.25C0.182617 39.0312 1.12012 38 2.43262 38H42.9326ZM7.68262 15.5H13.6826V33.5H19.6826V15.5H25.6826V33.5H31.6826V15.5H37.6826V33.5H41.0576C41.6201 33.5 42.1826 34.0625 42.1826 34.625V36.5H3.18262V34.625C3.18262 34.0625 3.65137 33.5 4.30762 33.5H7.68262V15.5Z" fill="#6C19FF"/>
</svg>
