<svg width="49" height="48" viewBox="0 0 49 48" fill="none" xmlns="http://www.w3.org/2000/svg">
<g id="Icon Illustration/icons8-module 1">
<path id="Vector" d="M31.6667 33H17.6667V37H31.6667V33Z" fill="#6C19FF"/>
<path id="Vector_2" d="M39.6667 28H35.6667V15H27.6667V11H39.6667V28Z" fill="#6C19FF"/>
<path id="Vector_3" d="M13.6667 28H9.66675V11H21.6667V15H13.6667V28Z" fill="#6C19FF"/>
<path id="Vector_4" d="M3.66675 39.5709L11.6667 44.1429L19.6667 30.4289L11.6667 25.8569L3.66675 30.4289V39.5709Z" fill="#7DEBF5"/>
<path id="Vector_5" d="M3.66675 39.5361L11.6667 44.1071V34.9641L3.66675 30.3931V39.5361Z" fill="#3DD9EB"/>
<path id="Vector_6" d="M11.6667 44.1071L19.6667 39.5361V30.3931L11.6667 34.9641V44.1071Z" fill="#C2FFFF"/>
<path id="Vector_7" d="M29.6667 39.5709L37.6667 44.1429L45.6667 30.4289L37.6667 25.8569L29.6667 30.4289V39.5709Z" fill="#7DEBF5"/>
<path id="Vector_8" d="M29.6667 39.5361L37.6667 44.1071V34.9641L29.6667 30.3931V39.5361Z" fill="#3DD9EB"/>
<path id="Vector_9" d="M37.6667 44.1071L45.6667 39.5361V30.3931L37.6667 34.9641V44.1071Z" fill="#C2FFFF"/>
<path id="Vector_10" d="M16.6667 17.5709L24.6667 22.1429L32.6667 8.42893L24.6667 3.85693L16.6667 8.42893V17.5709Z" fill="#7DEBF5"/>
<path id="Vector_11" d="M16.6667 17.5361L24.6667 22.1071V12.9641L16.6667 8.39307V17.5361Z" fill="#3DD9EB"/>
<path id="Vector_12" d="M24.6667 22.1071L32.6667 17.5361V8.39307L24.6667 12.9641V22.1071Z" fill="#C2FFFF"/>
<path id="Vector_13" d="M19.6667 11H16.6667V15H19.6667V11Z" fill="#00B3D7"/>
<path id="Vector_14" d="M32.6667 33H29.6667V37H32.6667V33Z" fill="#00B3D7"/>
<path id="Vector_15" d="M32.6667 11H29.6667V15H32.6667V11Z" fill="#7DEBF5"/>
<path id="Vector_16" d="M19.6667 33H16.6667V37H19.6667V33Z" fill="#7DEBF5"/>
</g>
</svg>
