<svg width="97" height="96" viewBox="0 0 97 96" fill="none" xmlns="http://www.w3.org/2000/svg">
<rect x="0.833374" y="0.5" width="95" height="95" rx="11.5" fill="url(#paint0_linear_43_13236)" fill-opacity="0.2"/>
<rect x="0.833374" y="0.5" width="95" height="95" rx="11.5" stroke="#262626"/>
<path d="M55.8334 68C63.2892 68 69.3334 61.9558 69.3334 54.5C69.3334 47.0442 63.2892 41 55.8334 41C48.3775 41 42.3334 47.0442 42.3334 54.5C42.3334 61.9558 48.3775 68 55.8334 68Z" fill="#6C19FF"/>
<path d="M47.3334 53H64.3334V50H47.3334V53Z" fill="#2100C4"/>
<path d="M47.3334 59H55.3334V56H47.3334V59Z" fill="#2100C4"/>
<path d="M42.9174 27.0288C35.4894 27.0288 29.4684 33.0498 29.4684 40.4778C29.4684 43.9978 30.8314 47.1918 33.0444 49.5888L29.5274 53.9278C29.5274 53.9278 42.8904 53.9278 42.9174 53.9278C50.3454 53.9278 56.3664 47.9068 56.3664 40.4788C56.3664 33.0508 50.3454 27.0288 42.9174 27.0288Z" fill="#3DD9EB"/>
<path d="M69.2634 67.9998H55.4244L62.4114 59.5488L69.2634 67.9998Z" fill="#6C19FF"/>
<path d="M42.3624 53.928H42.9174C50.1604 53.928 56.0494 48.198 56.3384 41.026C56.1694 41.019 56.0044 41 55.8334 41C48.5704 41 42.6644 46.739 42.3624 53.928Z" fill="#00B3D7"/>
<path d="M34.3334 39H51.3334V36H34.3334V39Z" fill="#00B3D7"/>
<path d="M34.3334 45H42.3334V42H34.3334V45Z" fill="#00B3D7"/>
<defs>
<linearGradient id="paint0_linear_43_13236" x1="-123.485" y1="-94.9091" x2="96.3334" y2="96" gradientUnits="userSpaceOnUse">
<stop offset="0.224072" stop-color="#9EFF00"/>
<stop offset="0.707836" stop-color="#9EFF00" stop-opacity="0"/>
</linearGradient>
</defs>
</svg>
