<svg width="49" height="48" viewBox="0 0 49 48" fill="none" xmlns="http://www.w3.org/2000/svg">
<g id="Icon Illustration/icons8-diploma 1">
<path id="Vector" d="M3.66669 8V40H45.6667V8H3.66669Z" fill="#3DD9EB"/>
<path id="Vector_2" d="M20.6667 31H28.6667V44L24.6237 42L20.6667 44V31Z" fill="#F55376"/>
<path id="Vector_3" d="M32.6667 15H16.6667V18H32.6667V15Z" fill="#00B3D7"/>
<path id="Vector_4" d="M37.6667 21H11.6667V24H37.6667V21Z" fill="#00B3D7"/>
<path id="Vector_5" d="M15.6667 29H11.6667V32H15.6667V29Z" fill="#00B3D7"/>
<path id="Vector_6" d="M37.6667 29H33.6667V32H37.6667V29Z" fill="#00B3D7"/>
<path id="Vector_7" d="M28.6667 31H20.6667V40H28.6667V31Z" fill="#EB0000"/>
<path id="Vector_8" d="M24.6667 37.064C27.4281 37.064 29.6667 34.8254 29.6667 32.064C29.6667 29.3025 27.4281 27.064 24.6667 27.064C21.9053 27.064 19.6667 29.3025 19.6667 32.064C19.6667 34.8254 21.9053 37.064 24.6667 37.064Z" fill="#F5BC00"/>
<path id="Vector_9" d="M24.6667 35.064C26.3235 35.064 27.6667 33.7208 27.6667 32.064C27.6667 30.4071 26.3235 29.064 24.6667 29.064C23.0098 29.064 21.6667 30.4071 21.6667 32.064C21.6667 33.7208 23.0098 35.064 24.6667 35.064Z" fill="#EB7900"/>
</g>
</svg>
