<svg width="48" height="48" viewBox="0 0 48 48" fill="none" xmlns="http://www.w3.org/2000/svg">
<g id="Icon Illustration/icons8-schedule 1">
<path id="Vector" d="M5 40V8H43V40H5Z" fill="#3DD9EB"/>
<path id="Vector_2" d="M38 48C43.5228 48 48 43.5228 48 38C48 32.4772 43.5228 28 38 28C32.4772 28 28 32.4772 28 38C28 43.5228 32.4772 48 38 48Z" fill="#6C19FF"/>
<path id="Vector_3" d="M27 19V23.039V24.948H21V19H27Z" fill="#00B3D7"/>
<path id="Vector_4" d="M18 19V23.039V24.948H12V19H18Z" fill="#00B3D7"/>
<path id="Vector_5" d="M36 19V23.039V24.948H30V19H36Z" fill="#00B3D7"/>
<path id="Vector_6" d="M27 28V32.044V33.956H21V28H27Z" fill="#00B3D7"/>
<path id="Vector_7" d="M18 28V32.044V33.956H12V28H18Z" fill="#00B3D7"/>
<path id="Vector_8" d="M14 8H10V11H14V8Z" fill="#00B3D7"/>
<path id="Vector_9" d="M38 8H34V11H38V8Z" fill="#00B3D7"/>
<path id="Vector_10" d="M14 5.00586H10V7.99986H14V5.00586Z" fill="#F5BC00"/>
<path id="Vector_11" d="M26 8H22V11H26V8Z" fill="#00B3D7"/>
<path id="Vector_12" d="M26 5.00586H22V7.99986H26V5.00586Z" fill="#F5BC00"/>
<path id="Vector_13" d="M38 5.00586H34V7.99986H38V5.00586Z" fill="#F5BC00"/>
<path id="Vector_14" d="M43 29.349C41.528 28.496 39.824 28 38 28C32.477 28 28 32.477 28 38C28 38.685 28.07 39.354 28.201 40H43V29.349Z" fill="#2100C4"/>
<path id="Vector_15" d="M43 40H37V32.125H39V38H43V40Z" fill="#A64AFF"/>
</g>
</svg>
